<svg xmlns="http://www.w3.org/2000/svg" id="Layer_1" data-name="Layer 1" width="300" height="300" viewBox="0 0 300 300"><defs><style>.cls-1{fill:#ff5215;fill-rule:evenodd;}</style></defs><path id="Fill-8" class="cls-1" d="M202.451,241.53q-15.91,0-22.1415-7.3088-6.2361-7.3062-6.2333-24.0768V139.64H221.369L215.42,87.1884H174.0762V0s-18.0617,1.1967-24.0779,1.669C119.1342,4.0875,98.29,24.62,98.29,48.6357l.1211,40.5348L69.1742,91.1526V139.64H98.4108v80.8242q0,36.9792,19.5605,58.2529,19.5571,21.28,57.8252,21.283a174.32,174.32,0,0,0,31.17-2.3639c.0838-.0176.167-.0331.2521-.0507a29.3764,29.3764,0,0,0,23.6076-29.0009V233.7909q-14.1852,7.7382-28.3748,7.7387"></path></svg>